<svg xmlns="http://www.w3.org/2000/svg" xmlns:xlink="http://www.w3.org/1999/xlink" viewBox="0 0 1000 1000">
  <defs>
    <style>
      .cls-1 {
        clip-path: url(#clip-自定义大小_1);
      }

      .cls-2 {
        fill: #ffd300;
      }

      .cls-3 {
        fill: #fb0;
      }

      .cls-4 {
        fill: #ff9c00;
      }
    </style>
    <clipPath id="clip-自定义大小_1">
      <rect width="1000" height="1000"/>
    </clipPath>
  </defs>
  <g id="自定义大小_1" data-name="自定义大小 – 1" class="cls-1">
    <g id="linux-2025536" transform="translate(72.861 112.888)">
      <path id="路径_1" data-name="路径 1" d="M445.787-43.886q-8.536-.015-17.817.7c-156.44,12.254-114.954,173-117.278,226.832-2.857,39.365-11.063,70.388-38.9,108.868-32.7,37.825-78.744,99.045-100.555,162.772-10.294,30.077-15.192,60.733-10.668,89.747-1.417,1.234-2.766,2.527-4.049,3.86-9.6,9.97-16.7,22.05-24.6,30.183-7.385,7.165-17.907,9.891-29.47,13.925s-24.268,9.988-31.977,24.376a.008.008,0,0,1-.005.007c-.013.024-.026.046-.039.071-6.979,12.678-4.9,27.278-2.773,40.8s4.289,26.308,1.425,34.979c-9.155,24.338-10.324,41.172-3.879,53.384,6.458,12.237,19.738,17.638,34.746,20.687,30.017,6.1,70.667,4.582,102.7,21.1l2.754-5.053-2.725,5.069c34.3,17.44,69.069,23.636,96.809,17.473,20.112-4.468,36.439-16.116,44.824-34.04,21.7-.1,45.507-9.042,83.648-11.084,25.875-2.027,58.2,8.937,95.373,6.929a48.272,48.272,0,0,0,4.3,11.283c.02.037.038.073.058.11,14.412,28.03,41.19,40.852,69.729,38.661,28.575-2.193,58.957-18.581,83.516-47.008l-4.5-3.68,4.537,3.64C704.385,743.1,743.239,731.653,769,716.54c12.881-7.557,23.335-17.019,24.142-30.763s-7.484-29.131-26.55-49.716l-.005-.005-.022-.026c-6.264-6.885-9.253-19.647-12.464-33.237s-6.792-28.233-18.256-37.727l-.069-.057a46.479,46.479,0,0,0-14.078-8.255c15.939-45.977,9.685-91.759-6.4-133.129-19.746-50.774-54.22-95.015-80.548-125.276-29.47-36.154-58.294-70.48-57.727-121.179C577.9,99.794,585.77-43.7,445.774-43.888ZM464.739,75.319c7.944,0,14.729,2.265,21.7,7.185,7.08,5,12.181,11.254,16.291,19.992a62.625,62.625,0,0,1,6.166,26.73,2.453,2.453,0,0,0,.076.74,63.4,63.4,0,0,1-5.671,27.581,53.338,53.338,0,0,1-7.958,12.9q-1.581-.738-3.284-1.42c-7.87-3.278-13.907-5.365-18.939-7.063a29.336,29.336,0,0,0,4.678-7.823,40.55,40.55,0,0,0,3.2-14.994c0-.222.076-.407.076-.666a40.572,40.572,0,0,0-2.208-14.549,26.705,26.705,0,0,0-6.89-11.328,14.255,14.255,0,0,0-9.858-4.369c-.173-.01-.346-.01-.516-.01a14.656,14.656,0,0,0-9.609,3.709,26.766,26.766,0,0,0-7.727,10.81,40.422,40.422,0,0,0-3.2,15.031,3.475,3.475,0,0,0-.038.629,43.319,43.319,0,0,0,.622,8.621,95.518,95.518,0,0,0-20.088-7.247,73.834,73.834,0,0,1-.632-8.223v-.778a62.386,62.386,0,0,1,5.6-27.581c4-8.811,8.945-15.142,15.91-20.288s13.817-7.515,21.925-7.589h.379ZM356.013,83.692c5.27.012,9.985,1.725,14.863,5.513,5.291,4.109,9.287,9.366,12.637,16.771a63.856,63.856,0,0,1,5.633,23.546v.074a67.739,67.739,0,0,1-.087,10.469Q387.5,140.5,386,141a67.513,67.513,0,0,0-15.054,7.3,37.4,37.4,0,0,0,.163-9.224,2.359,2.359,0,0,1-.038-.518,39.412,39.412,0,0,0-3.007-11.847,22.874,22.874,0,0,0-6.128-8.737,10.161,10.161,0,0,0-6.794-2.773c-.245,0-.492.013-.742.033a9.924,9.924,0,0,0-6.966,3.961,22.658,22.658,0,0,0-4.453,9.625,37.53,37.53,0,0,0-.837,12.661c0,.185.038.333.038.518a38.278,38.278,0,0,0,3.007,11.884,22.6,22.6,0,0,0,6.128,8.7q.631.53,1.251.954c-2.613,1.956-3.861,2.858-6,4.388q-2.06,1.47-4.91,3.51c-4.146-3.778-7.38-8.525-10.208-14.776a64.643,64.643,0,0,1-5.671-23.546v-.074a64.289,64.289,0,0,1,2.855-24.027c2.474-7.775,5.786-13.4,10.582-18.029s9.63-6.96,15.454-7.256q.682-.036,1.352-.033Zm49.448,60.615c12.248-.046,26.987,3.86,44.831,15.018,10.96,6.932,19.488,7.512,39.127,15.692l.024.011.024.01c9.449,3.771,14.995,8.685,17.7,13.861s2.776,10.788.508,16.692c-4.536,11.808-19.014,24.236-39.33,30.406l-.019.008-.018.008c-9.906,3.13-18.544,10.043-28.728,15.707s-21.707,10.232-37.376,9.35c-13.339-.756-21.313-5.161-28.523-10.8s-13.493-12.716-22.693-17.971l-.024-.014-.024-.014c-14.819-8.147-22.91-17.57-25.449-25.738s-.156-15.142,7.2-20.5c8.266-6.026,14.008-10.124,17.834-12.854a78.371,78.371,0,0,0,6.591-4.859.083.083,0,0,1,.019-.018l.005-.01c6.211-5.718,16.112-16.137,31.037-21.134a54.641,54.641,0,0,1,17.284-2.854Zm85.647,49.268c-5.285.307-10.821,2.953-17.267,6.453s-13.694,7.977-21.548,12.386c-15.71,8.818-33.794,17.25-51.766,17.25-18,0-32.381-8.086-43.168-16.4-5.393-4.157-9.845-8.344-13.4-11.583-1.778-1.62-3.32-3-4.759-4.078s-2.61-2.147-5.017-2.147l-.115,4.92a14.391,14.391,0,0,1-.28,1.641,7.055,7.055,0,0,1,1.323.747c1.058.793,2.526,2.085,4.269,3.672,3.486,3.175,8.117,7.54,13.82,11.934,11.4,8.79,27.265,17.809,47.328,17.809,20.092,0,39.1-9.134,55.116-18.123,8.008-4.495,15.281-8.981,21.465-12.34s11.387-5.464,14.4-5.639l-.4-6.5Zm17.859,23.385c13.344,51.162,44.381,125.064,64.33,161.127,10.6,19.133,31.7,59.786,40.812,108.762a70.543,70.543,0,0,1,18.944,2.338c23.829-60.085-20.207-124.809-40.344-142.83-8.13-7.673-8.52-11.111-4.49-10.948C610.066,354.2,638.747,392,649.182,434.656c4.758,19.453,5.773,39.9.667,60.086q3.747,1.514,7.606,3.29c38.251,18.116,52.4,33.869,45.6,55.37-2.24-.076-4.444-.068-6.593-.017l-.6.015c5.539-17.042-6.732-29.612-39.43-44-33.914-14.512-60.939-13.069-65.507,16.363q-.438,2.313-.707,4.706a50.905,50.905,0,0,0-7.635,3.308c-15.926,8.475-24.617,23.854-29.452,42.715s-6.215,41.629-7.548,67.242v.013c-.815,12.879-6.258,30.3-11.779,48.745-55.557,38.545-132.664,55.245-198.134,11.789-4.437-6.826-9.526-13.59-14.765-20.261-3.345-4.26-6.782-8.494-10.2-12.669a42.2,42.2,0,0,0,17.051-3.1c5.741-2.532,9.775-6.6,11.771-11.821,3.991-10.442-.017-25.173-12.8-42s-34.416-35.8-66.215-54.772a.005.005,0,0,1-.005-.005c-23.361-14.135-36.425-31.462-42.54-50.274s-5.258-39.158-.545-59.243c9.047-38.553,32.292-76.049,47.123-99.58,3.993-2.858,1.427,5.3-15.014,35-14.735,27.15-42.283,89.807-4.565,138.723,1.008-34.806,9.554-70.3,23.9-103.51,20.9-46.074,64.608-125.976,68.08-189.654,1.79,1.264,7.941,5.3,10.682,6.817a.021.021,0,0,0,.018.01c8.019,4.593,14.041,11.307,21.841,17.4a54.792,54.792,0,0,0,32.33,12.222c17.217.969,30.34-4.218,41.09-10.2,10.735-5.97,19.31-12.577,27.435-15.156a.1.1,0,0,1,.037-.011c17.168-5.222,30.819-14.464,38.587-25.244ZM618.012,509.867c6.954-.031,15.378,2.224,24.6,6.236,24.818,11.144,32.582,20.7,25.807,34.726-5.709,10.588-30.146,27.432-46.894,22.99-17.091-4.294-25.426-28.248-22.648-46.351,1.488-12.293,8.637-17.554,19.137-17.6Zm-28.079,33.082c1.4,22.138,12.664,44.717,32.58,49.6,21.794,5.585,53.216-12.6,66.484-27.438,2.645-.1,5.232-.229,7.743-.288,11.637-.273,21.4.373,31.371,8.856l.034.029.036.029c7.664,6.315,11.307,18.25,14.467,31.62s5.686,27.931,15.161,38.3l.014.015.013.015c18.216,19.662,24.071,32.95,23.573,41.433s-6.813,14.78-18.472,21.62c-23.309,13.674-64.61,25.565-90.99,56.644-22.906,26.513-50.837,41.076-75.437,42.964s-45.822-8.042-58.335-32.468l-.028-.055-.03-.054c-7.762-14.362-4.529-37.027,2.01-60.933s15.934-48.455,17.191-68.407v-.062c1.33-25.564,2.8-47.888,7.217-65.114s11.367-28.892,23.685-35.447q.86-.458,1.709-.865Zm-400.01,1.671a41.346,41.346,0,0,1,5.857.462c13.943,2.054,26.1,11.536,37.816,26.991s22.615,36.551,33.821,59.953l.014.029.013.028c9,18.28,28.006,38.379,44.108,58.884s28.565,41.086,26.942,56.84l-.008.068-.005.068c-2.1,26.868-17.681,41.494-41.6,46.808s-56.331.017-88.712-16.443l-.028-.015c-35.823-18.454-78.439-16.621-105.778-22.175-13.672-2.778-22.594-6.953-26.689-14.712s-4.186-21.294,4.515-44.372l.038-.1.034-.1c4.3-12.911,1.119-27.037-.971-40.3s-3.111-25.319,1.544-33.725l.021-.038.021-.039c5.96-11.173,14.7-15.168,25.551-18.954s23.714-6.759,33.874-16.662l.052-.052.052-.053c9.392-9.637,16.446-21.716,24.7-30.289,6.966-7.234,13.939-12.028,24.446-12.1h.366Z" transform="translate(0 0)"/>
      <path id="路径_2" data-name="路径 2" class="cls-2" d="M544.68,509.42c-10.063,4.231-16.3,14.377-19.9,24.291-8.725,25.368-7.452,52.649-10.573,78.888-4.539,27.7-16.08,53.942-19.876,81.845-.3,10.77-1.842,22.341,3.4,32.265,7.994,15.987,23.42,29.526,41.831,30.8,25.838,2.614,50.735-10.154,69.138-27.42,13.823-13.995,26.766-29.4,44.155-39.206,19.152-11.788,40.8-19.309,59.319-32.219,6.892-4.716,11.495-13.355,8.957-21.725-4.032-16.051-17.429-26.971-25.752-40.56-9.359-17.208-8.042-38.524-19.131-54.975-8.708-11.608-24.819-13.9-38.311-11.8-5.117,1.891-8.146,7.121-12.83,9.853-14.456,10.418-32.424,19.539-50.562,15.266-15.315-4.63-23.477-20.417-26.637-35.051-1.432-3.17.046-7.423-2.276-10.093a1.639,1.639,0,0,0-.958-.153Z" transform="translate(61.162 49.782)"/>
      <path id="路径_3" data-name="路径 3" class="cls-3" d="M545.03,509.38c-21.091,8.645-23.01,35.162-26.411,54.641-3.122,32.566-6.386,65.047-16.677,96.281-5.492,24.264-15.5,53.606,1.72,75.573,11.016,16.187,31.044,24.853,50.371,21.069,37.225-2.225,59.661-36.19,86.764-57.036,23.315-19.524,55.44-25.826,77.1-47.315,10.2-15.042-4.684-31.559-12.922-43.655-18.871-19.13-15.494-48.669-30.961-69.557-9.429-10.8-27.074-12.8-39.788-7.482-16.923,14.14-39.235,27.46-61.982,21.6C556.7,545.218,547.668,527.111,546.6,510a1.9,1.9,0,0,0-1.576-.616Z" transform="translate(61.162 49.782)"/>
      <path id="路径_4" data-name="路径 4" class="cls-3" d="M178.83,510.85c-21.98,1.49-31.083,25.744-45.455,38.951-15.68,16.4-46,14.284-55.34,37.3-6.075,24.452,8.516,49.955-2.081,73.816-4.035,14.113-8.7,35.712,7.86,43.815,34.028,12.485,72.277,8.16,105.59,23.65,25.9,11.543,53.612,23.712,82.688,18.469,25.391-1.747,46.32-25.844,42.777-51.41-4.664-28.014-27.058-48.5-42.829-70.749-27.468-31.48-35.91-76.012-67.891-103.91-7.06-5.907-15.922-10.262-25.316-9.933Z" transform="translate(0 49.782)"/>
      <path id="路径_5" data-name="路径 5" class="cls-3" d="M376.24,132.51c-12.735,0-24.934,5.516-34.492,13.721-6.223,5.335-12.051,11.161-18.875,15.764-5.726,4.4-11.881,8.35-17.069,13.4-4.618,4.925-5.286,12.468-2.682,18.526,3.3,8.4,10.317,14.7,17.567,19.739a112.3,112.3,0,0,1,19.553,14.486c7.624,6.97,16.234,13.828,26.741,15.49a63.709,63.709,0,0,0,21.675-.295c12.869-2.678,23.78-10.376,34.774-17.139,5.272-3.471,11.287-5.4,17.131-7.637,12.1-5.077,23.924-13.059,29.837-25.152,3.371-6.646,3.272-15.2-1.425-21.2-6.191-8.2-16.468-11.366-25.637-14.96-8.965-3.355-18.383-5.892-26.4-11.322-12.19-7.611-26.091-13.552-40.7-13.416Zm78,48.437a21.2,21.2,0,0,1,.2,4.226c-7.775,1.738-14.344,6.589-21.22,10.36-15.653,9.171-31.538,19.1-49.658,22.415a86.84,86.84,0,0,1-18.347.648c-11.808-1.385-22.974-6.579-32.445-13.709-7.394-5.258-13.711-11.811-20.637-17.625.352-1.437-.031-3.438.387-4.525,4.53,2.313,7.69,6.355,11.6,9.562,8.952,8.358,19.083,15.8,30.835,19.652a45.178,45.178,0,0,0,17.793,2.606c10.419.387,20.53-3.08,29.959-7.181,15.028-6.652,28.531-16.253,43.105-23.692a27.529,27.529,0,0,1,8.426-2.737Z" transform="translate(29.429 12.542)"/>
      <path id="路径_6" data-name="路径 6" d="M570.88,477.09c-7.043-.194-14.037,4.122-16.234,10.961-3.04,9.2-2.376,19.392.335,28.6,3.138,9.754,9.5,20.041,20.163,22.495,11.122,2.021,22.162-3.218,31-9.549,7.024-5.281,14.554-12.268,14.545-21.761-.234-8.773-8-14.624-14.812-18.821-10.659-6.095-22.458-11.868-35-11.922Z" transform="translate(49.865 34.598)"/>
      <path id="路径_7" data-name="路径 7" class="cls-4" d="M375.33,131.75c-14.443-.065-27.747,7.561-38.043,17.179-9.863,9.057-21.22,16.348-31.266,25.2-6.713,5.856-6.579,16.406-2.095,23.556,6.213,10.945,17.511,17.246,27.434,24.319,9.719,7.341,18.064,17.13,29.978,21.041,9.511,3.21,19.943,2.688,29.643.649,14.5-3.791,26.362-13.588,39.493-20.161,10.335-4.123,21.05-8.152,29.517-15.675,5.819-5.263,11.553-11.716,13-19.67.636-5.5.71-11.634-3.159-16.064-7.5-10.187-20.534-13.291-31.7-17.7-8.2-2.855-16.321-6.075-23.544-10.976-11.937-6.758-25.278-12.363-39.266-11.7Zm78.177,50.288c.025,1.176.512,2.907-1.248,2.737-12.706,5.029-23.967,13.083-36.022,19.351-13.26,7.413-27.688,13.8-43.123,13.611-14.882.973-29.072-5.6-40.768-14.31-6.545-5.135-12.71-10.73-18.975-16.2-.146-1.773-.3-3.966,1.605-1.708,11.484,9.813,22.485,21.019,36.994,26.287,9.758,4.253,20.64,4.031,31,2.874,20.183-3.933,37.479-15.838,55.136-25.692,4.893-2.638,10-5.881,15.4-6.955Z" transform="translate(29.409 12.515)"/>
    </g>
  </g>
</svg>
